<mxfile host="app.diagrams.net" agent="Mozilla/5.0" version="24.8.7">
  <diagram name="BusTub SQL-to-Execution Pipeline" id="bustub-pipeline-detailed">
    <mxGraphModel dx="1500" dy="900" grid="1" gridSize="10" guides="1" tooltips="1" connect="1" arrows="1" fold="1" page="1" pageScale="1" pageWidth="1400" pageHeight="1000" math="0" shadow="0">
      <root>
        <mxCell id="0" />
        <mxCell id="1" parent="0" />
        
        <!-- SQL Input -->
        <mxCell id="sql_input" value="SQL Query String" style="ellipse;whiteSpace=wrap;html=1;fillColor=#f8cecc;strokeColor=#b85450;" vertex="1" parent="1">
          <mxGeometry x="40" y="40" width="140" height="60" as="geometry" />
        </mxCell>
        
        <!-- Parser Stage -->
        <mxCell id="parser_stage" value="&lt;b&gt;Parser Stage&lt;/b&gt;&lt;br&gt;PostgresParser&lt;br&gt;(libpg_query)" style="rounded=1;whiteSpace=wrap;html=1;fillColor=#d5e8d4;strokeColor=#82b366;" vertex="1" parent="1">
          <mxGeometry x="240" y="40" width="160" height="80" as="geometry" />
        </mxCell>
        
        <!-- Parse Tree -->
        <mxCell id="parse_tree" value="&lt;b&gt;Parse Tree&lt;/b&gt;&lt;br&gt;PGNode* (AST)&lt;br&gt;T_PGSelectStmt&lt;br&gt;T_PGInsertStmt&lt;br&gt;T_PGCreateStmt" style="shape=note;whiteSpace=wrap;html=1;fillColor=#fff2cc;strokeColor=#d6b656;" vertex="1" parent="1">
          <mxGeometry x="460" y="20" width="140" height="120" as="geometry" />
        </mxCell>
        
        <!-- Binder Stage -->
        <mxCell id="binder_stage" value="&lt;b&gt;Binder Stage&lt;/b&gt;&lt;br&gt;Binder Class&lt;br&gt;BindStatement()" style="rounded=1;whiteSpace=wrap;html=1;fillColor=#d5e8d4;strokeColor=#82b366;" vertex="1" parent="1">
          <mxGeometry x="240" y="180" width="160" height="80" as="geometry" />
        </mxCell>
        
        <!-- Bound Statements -->
        <mxCell id="bound_statements" value="&lt;b&gt;Bound Statements&lt;/b&gt;&lt;br&gt;SelectStatement&lt;br&gt;InsertStatement&lt;br&gt;CreateStatement&lt;br&gt;DeleteStatement" style="shape=note;whiteSpace=wrap;html=1;fillColor=#fff2cc;strokeColor=#d6b656;" vertex="1" parent="1">
          <mxGeometry x="460" y="160" width="140" height="120" as="geometry" />
        </mxCell>
        
        <!-- Planner Stage -->
        <mxCell id="planner_stage" value="&lt;b&gt;Planner Stage&lt;/b&gt;&lt;br&gt;Planner Class&lt;br&gt;PlanQuery()" style="rounded=1;whiteSpace=wrap;html=1;fillColor=#d5e8d4;strokeColor=#82b366;" vertex="1" parent="1">
          <mxGeometry x="240" y="320" width="160" height="80" as="geometry" />
        </mxCell>
        
        <!-- Abstract Plan Node -->
        <mxCell id="abstract_plan" value="&lt;b&gt;Logical Plan&lt;/b&gt;&lt;br&gt;AbstractPlanNode&lt;br&gt;InsertPlan&lt;br&gt;SeqScanPlan&lt;br&gt;FilterPlan&lt;br&gt;ProjectionPlan" style="shape=note;whiteSpace=wrap;html=1;fillColor=#fff2cc;strokeColor=#d6b656;" vertex="1" parent="1">
          <mxGeometry x="460" y="300" width="140" height="120" as="geometry" />
        </mxCell>
        
        <!-- Optimizer Stage -->
        <mxCell id="optimizer_stage" value="&lt;b&gt;Optimizer Stage&lt;/b&gt;&lt;br&gt;Optimizer Class&lt;br&gt;Optimize()" style="rounded=1;whiteSpace=wrap;html=1;fillColor=#d5e8d4;strokeColor=#82b366;" vertex="1" parent="1">
          <mxGeometry x="240" y="460" width="160" height="80" as="geometry" />
        </mxCell>
        
        <!-- Optimized Plan -->
        <mxCell id="optimized_plan" value="&lt;b&gt;Physical Plan&lt;/b&gt;&lt;br&gt;Optimized&lt;br&gt;AbstractPlanNode&lt;br&gt;(with indexes, joins)" style="shape=note;whiteSpace=wrap;html=1;fillColor=#fff2cc;strokeColor=#d6b656;" vertex="1" parent="1">
          <mxGeometry x="460" y="440" width="140" height="120" as="geometry" />
        </mxCell>
        
        <!-- Executor Factory -->
        <mxCell id="executor_factory" value="&lt;b&gt;Executor Factory&lt;/b&gt;&lt;br&gt;ExecutorFactory&lt;br&gt;CreateExecutor()" style="rounded=1;whiteSpace=wrap;html=1;fillColor=#d5e8d4;strokeColor=#82b366;" vertex="1" parent="1">
          <mxGeometry x="240" y="600" width="160" height="80" as="geometry" />
        </mxCell>
        
        <!-- Executor Tree -->
        <mxCell id="executor_tree" value="&lt;b&gt;Executor Tree&lt;/b&gt;&lt;br&gt;AbstractExecutor&lt;br&gt;InsertExecutor&lt;br&gt;SeqScanExecutor&lt;br&gt;FilterExecutor" style="shape=note;whiteSpace=wrap;html=1;fillColor=#fff2cc;strokeColor=#d6b656;" vertex="1" parent="1">
          <mxGeometry x="460" y="580" width="140" height="120" as="geometry" />
        </mxCell>
        
        <!-- Volcano Iterator Model -->
        <mxCell id="volcano_execution" value="&lt;b&gt;Volcano Iterator Model&lt;/b&gt;&lt;br&gt;Init() → Next() → Next()..." style="rounded=1;whiteSpace=wrap;html=1;fillColor=#ffe6cc;strokeColor=#d79b00;" vertex="1" parent="1">
          <mxGeometry x="240" y="740" width="160" height="80" as="geometry" />
        </mxCell>
        
        <!-- Output Tuples -->
        <mxCell id="output_tuples" value="&lt;b&gt;Output&lt;/b&gt;&lt;br&gt;Tuple Results&lt;br&gt;(with schema)" style="ellipse;whiteSpace=wrap;html=1;fillColor=#f8cecc;strokeColor=#b85450;" vertex="1" parent="1">
          <mxGeometry x="460" y="740" width="140" height="80" as="geometry" />
        </mxCell>
        
        <!-- Flow Arrows -->
        <mxCell id="flow_1" style="edgeStyle=orthogonalEdgeStyle;rounded=0;orthogonalLoop=1;jettySize=auto;html=1;exitX=1;exitY=0.5;exitDx=0;exitDy=0;entryX=0;entryY=0.5;entryDx=0;entryDy=0;" edge="1" parent="1" source="sql_input" target="parser_stage">
          <mxGeometry relative="1" as="geometry" />
        </mxCell>
        
        <mxCell id="flow_2" style="edgeStyle=orthogonalEdgeStyle;rounded=0;orthogonalLoop=1;jettySize=auto;html=1;exitX=1;exitY=0.5;exitDx=0;exitDy=0;entryX=0;entryY=0;entryDx=50;entryDy=0;entryPerimeter=0;" edge="1" parent="1" source="parser_stage" target="parse_tree">
          <mxGeometry relative="1" as="geometry" />
        </mxCell>
        
        <mxCell id="flow_3" style="edgeStyle=orthogonalEdgeStyle;rounded=0;orthogonalLoop=1;jettySize=auto;html=1;exitX=0.5;exitY=1;exitDx=0;exitDy=0;entryX=0.5;entryY=0;entryDx=0;entryDy=0;" edge="1" parent="1" source="parser_stage" target="binder_stage">
          <mxGeometry relative="1" as="geometry" />
        </mxCell>
        
        <mxCell id="flow_4" style="edgeStyle=orthogonalEdgeStyle;rounded=0;orthogonalLoop=1;jettySize=auto;html=1;exitX=1;exitY=0.5;exitDx=0;exitDy=0;entryX=0;entryY=0;entryDx=50;entryDy=0;entryPerimeter=0;" edge="1" parent="1" source="binder_stage" target="bound_statements">
          <mxGeometry relative="1" as="geometry" />
        </mxCell>
        
        <mxCell id="flow_5" style="edgeStyle=orthogonalEdgeStyle;rounded=0;orthogonalLoop=1;jettySize=auto;html=1;exitX=0.5;exitY=1;exitDx=0;exitDy=0;entryX=0.5;entryY=0;entryDx=0;entryDy=0;" edge="1" parent="1" source="binder_stage" target="planner_stage">
          <mxGeometry relative="1" as="geometry" />
        </mxCell>
        
        <mxCell id="flow_6" style="edgeStyle=orthogonalEdgeStyle;rounded=0;orthogonalLoop=1;jettySize=auto;html=1;exitX=1;exitY=0.5;exitDx=0;exitDy=0;entryX=0;entryY=0;entryDx=50;entryDy=0;entryPerimeter=0;" edge="1" parent="1" source="planner_stage" target="abstract_plan">
          <mxGeometry relative="1" as="geometry" />
        </mxCell>
        
        <mxCell id="flow_7" style="edgeStyle=orthogonalEdgeStyle;rounded=0;orthogonalLoop=1;jettySize=auto;html=1;exitX=0.5;exitY=1;exitDx=0;exitDy=0;entryX=0.5;entryY=0;entryDx=0;entryDy=0;" edge="1" parent="1" source="planner_stage" target="optimizer_stage">
          <mxGeometry relative="1" as="geometry" />
        </mxCell>
        
        <mxCell id="flow_8" style="edgeStyle=orthogonalEdgeStyle;rounded=0;orthogonalLoop=1;jettySize=auto;html=1;exitX=1;exitY=0.5;exitDx=0;exitDy=0;entryX=0;entryY=0;entryDx=50;entryDy=0;entryPerimeter=0;" edge="1" parent="1" source="optimizer_stage" target="optimized_plan">
          <mxGeometry relative="1" as="geometry" />
        </mxCell>
        
        <mxCell id="flow_9" style="edgeStyle=orthogonalEdgeStyle;rounded=0;orthogonalLoop=1;jettySize=auto;html=1;exitX=0.5;exitY=1;exitDx=0;exitDy=0;entryX=0.5;entryY=0;entryDx=0;entryDy=0;" edge="1" parent="1" source="optimizer_stage" target="executor_factory">
          <mxGeometry relative="1" as="geometry" />
        </mxCell>
        
        <mxCell id="flow_10" style="edgeStyle=orthogonalEdgeStyle;rounded=0;orthogonalLoop=1;jettySize=auto;html=1;exitX=1;exitY=0.5;exitDx=0;exitDy=0;entryX=0;entryY=0;entryDx=50;entryDy=0;entryPerimeter=0;" edge="1" parent="1" source="executor_factory" target="executor_tree">
          <mxGeometry relative="1" as="geometry" />
        </mxCell>
        
        <mxCell id="flow_11" style="edgeStyle=orthogonalEdgeStyle;rounded=0;orthogonalLoop=1;jettySize=auto;html=1;exitX=0.5;exitY=1;exitDx=0;exitDy=0;entryX=0.5;entryY=0;entryDx=0;entryDy=0;" edge="1" parent="1" source="executor_factory" target="volcano_execution">
          <mxGeometry relative="1" as="geometry" />
        </mxCell>
        
        <mxCell id="flow_12" style="edgeStyle=orthogonalEdgeStyle;rounded=0;orthogonalLoop=1;jettySize=auto;html=1;exitX=1;exitY=0.5;exitDx=0;exitDy=0;entryX=0;entryY=0.5;entryDx=0;entryDy=0;" edge="1" parent="1" source="volcano_execution" target="output_tuples">
          <mxGeometry relative="1" as="geometry" />
        </mxCell>
        
        <!-- Detailed Components -->
        
        <!-- Catalog Interaction -->
        <mxCell id="catalog" value="&lt;b&gt;Catalog&lt;/b&gt;&lt;br&gt;Schema Info&lt;br&gt;Table Metadata&lt;br&gt;Index Info" style="rounded=1;whiteSpace=wrap;html=1;fillColor=#e1d5e7;strokeColor=#9673a6;" vertex="1" parent="1">
          <mxGeometry x="680" y="160" width="120" height="80" as="geometry" />
        </mxCell>
        
        <!-- Buffer Pool Manager -->
        <mxCell id="bpm" value="&lt;b&gt;Buffer Pool&lt;/b&gt;&lt;br&gt;BufferPoolManager&lt;br&gt;Page Access&lt;br&gt;Disk I/O" style="rounded=1;whiteSpace=wrap;html=1;fillColor=#e1d5e7;strokeColor=#9673a6;" vertex="1" parent="1">
          <mxGeometry x="680" y="580" width="120" height="80" as="geometry" />
        </mxCell>
        
        <!-- Transaction Manager -->
        <mxCell id="txn_mgr" value="&lt;b&gt;Transaction&lt;/b&gt;&lt;br&gt;Transaction*&lt;br&gt;Lock Manager&lt;br&gt;ACID Properties" style="rounded=1;whiteSpace=wrap;html=1;fillColor=#e1d5e7;strokeColor=#9673a6;" vertex="1" parent="1">
          <mxGeometry x="680" y="740" width="120" height="80" as="geometry" />
        </mxCell>
        
        <!-- Connections to components -->
        <mxCell id="catalog_link" style="edgeStyle=orthogonalEdgeStyle;rounded=0;orthogonalLoop=1;jettySize=auto;html=1;exitX=1;exitY=0;exitDx=0;exitDy=50;exitPerimeter=0;entryX=0;entryY=0.5;entryDx=0;entryDy=0;dashed=1;" edge="1" parent="1" source="bound_statements" target="catalog">
          <mxGeometry relative="1" as="geometry" />
        </mxCell>
        
        <mxCell id="bpm_link" style="edgeStyle=orthogonalEdgeStyle;rounded=0;orthogonalLoop=1;jettySize=auto;html=1;exitX=1;exitY=0;exitDx=0;exitDy=50;exitPerimeter=0;entryX=0;entryY=0.5;entryDx=0;entryDy=0;dashed=1;" edge="1" parent="1" source="executor_tree" target="bpm">
          <mxGeometry relative="1" as="geometry" />
        </mxCell>
        
        <mxCell id="txn_link" style="edgeStyle=orthogonalEdgeStyle;rounded=0;orthogonalLoop=1;jettySize=auto;html=1;exitX=1;exitY=0.5;exitDx=0;exitDy=0;entryX=0;entryY=0.5;entryDx=0;entryDy=0;dashed=1;" edge="1" parent="1" source="volcano_execution" target="txn_mgr">
          <mxGeometry relative="1" as="geometry" />
        </mxCell>
        
        <!-- Detailed Volcano Model -->
        <mxCell id="volcano_details" value="&lt;b&gt;Volcano Iterator Execution&lt;/b&gt;&lt;br&gt;&lt;br&gt;1. executor-&gt;Init()&lt;br&gt;2. while(executor-&gt;Next(&amp;tuple, &amp;rid)):&lt;br&gt;   • Child executors called recursively&lt;br&gt;   • Tuple processing &amp; filtering&lt;br&gt;   • Schema validation&lt;br&gt;   • Index updates (for Insert)&lt;br&gt;3. Return results to parent" style="shape=note;whiteSpace=wrap;html=1;fillColor=#ffe6cc;strokeColor=#d79b00;align=left;" vertex="1" parent="1">
          <mxGeometry x="850" y="500" width="240" height="160" as="geometry" />
        </mxCell>
        
        <mxCell id="volcano_detail_link" style="edgeStyle=orthogonalEdgeStyle;rounded=0;orthogonalLoop=1;jettySize=auto;html=1;exitX=1;exitY=0;exitDx=0;exitDy=50;exitPerimeter=0;entryX=0;entryY=0.5;entryDx=0;entryDy=0;dashed=1;" edge="1" parent="1" source="executor_tree" target="volcano_details">
          <mxGeometry relative="1" as="geometry" />
        </mxCell>
        
        <!-- Expression Tree Details -->
        <mxCell id="expression_details" value="&lt;b&gt;Expression Tree&lt;/b&gt;&lt;br&gt;&lt;br&gt;• AbstractExpression&lt;br&gt;• ColumnValueExpression&lt;br&gt;• ConstantValueExpression&lt;br&gt;• ComparisonExpression&lt;br&gt;• LogicExpression&lt;br&gt;&lt;br&gt;Used in WHERE clauses,&lt;br&gt;projections, and filters" style="shape=note;whiteSpace=wrap;html=1;fillColor=#f0f0f0;strokeColor=#666666;align=left;" vertex="1" parent="1">
          <mxGeometry x="850" y="300" width="200" height="160" as="geometry" />
        </mxCell>
        
        <mxCell id="expression_link" style="edgeStyle=orthogonalEdgeStyle;rounded=0;orthogonalLoop=1;jettySize=auto;html=1;exitX=1;exitY=0;exitDx=0;exitDy=50;exitPerimeter=0;entryX=0;entryY=0.5;entryDx=0;entryDy=0;dashed=1;" edge="1" parent="1" source="abstract_plan" target="expression_details">
          <mxGeometry relative="1" as="geometry" />
        </mxCell>
        
        <!-- Plan Types Details -->
        <mxCell id="plan_types" value="&lt;b&gt;Plan Node Types&lt;/b&gt;&lt;br&gt;&lt;br&gt;• SeqScan (Table scan)&lt;br&gt;• IndexScan (Index lookup)&lt;br&gt;• Insert, Update, Delete&lt;br&gt;• Filter (WHERE clause)&lt;br&gt;• Projection (SELECT list)&lt;br&gt;• NestedLoopJoin&lt;br&gt;• HashJoin&lt;br&gt;• Aggregation (GROUP BY)&lt;br&gt;• Sort, Limit" style="shape=note;whiteSpace=wrap;html=1;fillColor=#f0f0f0;strokeColor=#666666;align=left;" vertex="1" parent="1">
          <mxGeometry x="850" y="100" width="180" height="180" as="geometry" />
        </mxCell>
        
        <mxCell id="plan_types_link" style="edgeStyle=orthogonalEdgeStyle;rounded=0;orthogonalLoop=1;jettySize=auto;html=1;exitX=1;exitY=0;exitDx=0;exitDy=50;exitPerimeter=0;entryX=0;entryY=0.5;entryDx=0;entryDy=0;dashed=1;" edge="1" parent="1" source="optimized_plan" target="plan_types">
          <mxGeometry relative="1" as="geometry" />
        </mxCell>
        
        <!-- Output Schema Details -->
        <mxCell id="schema_details" value="&lt;b&gt;Output Schema&lt;/b&gt;&lt;br&gt;&lt;br&gt;Defines what each executor&lt;br&gt;returns to its parent:&lt;br&gt;• Column names&lt;br&gt;• Column types&lt;br&gt;• Column order&lt;br&gt;&lt;br&gt;Example: INSERT returns&lt;br&gt;Schema({{&quot;-&quot;, TypeId::INTEGER}})" style="shape=note;whiteSpace=wrap;html=1;fillColor=#fff2cc;strokeColor=#d6b656;align=left;" vertex="1" parent="1">
          <mxGeometry x="680" y="860" width="220" height="140" as="geometry" />
        </mxCell>
        
        <mxCell id="schema_link" style="edgeStyle=orthogonalEdgeStyle;rounded=0;orthogonalLoop=1;jettySize=auto;html=1;exitX=1;exitY=1;exitDx=0;exitDy=0;entryX=0;entryY=0.5;entryDx=0;entryDy=0;dashed=1;" edge="1" parent="1" source="output_tuples" target="schema_details">
          <mxGeometry relative="1" as="geometry" />
        </mxCell>
        
        <!-- Title -->
        <mxCell id="title" value="&lt;h1&gt;BusTub SQL-to-Execution Pipeline&lt;/h1&gt;&lt;br&gt;Complete flow from SQL string to tuple results using the Volcano Iterator Model" style="text;html=1;strokeColor=none;fillColor=none;align=center;verticalAlign=middle;whiteSpace=wrap;rounded=0;fontColor=#000000;" vertex="1" parent="1">
          <mxGeometry x="40" y="880" width="600" height="80" as="geometry" />
        </mxCell>
        
      </root>
    </mxGraphModel>
  </diagram>
</mxfile>
